<svg height="14" viewBox="0 0 14 14" width="14" xmlns="http://www.w3.org/2000/svg"><path d="m1120.41681 25h-12.83319c-.32243 0-.58362.2611875-.58362.5831875v12.833625c0 .322.26119.5831875.58362.5831875h6.85388v-5.25h-1.75v-2.1875h1.75v-1.75c0-1.8081875 1.14494-2.6980625 2.758-2.6980625.77263 0 1.43675.05775 1.63012.083125v1.89l-1.11868.0004375c-.87719 0-1.08194.4169375-1.08194 1.0285625v1.4459375h2.1875l-.4375 2.1875h-1.75l.035 5.25h3.75681c.322 0 .58319-.2611875.58319-.5831875v-12.833625c0-.322-.26119-.5831875-.58319-.5831875" fill-rule="evenodd" transform="translate(-1107 -25)"/></svg>