<svg height="14" viewBox="0 0 14 14" width="14" xmlns="http://www.w3.org/2000/svg"><path d="m1138.00001 25c-1.9011 0-2.13948.0080582-2.8861.0421245-.74507.0339827-1.25392.1523259-1.69918.3253805-.46031.1788619-.85068.418215-1.23986.8073657-.38915.3891784-.6285.7795515-.80737 1.2398633-.17305.4452516-.29139.9541067-.32538 1.699175-.03406.7466244-.04212.985005-.04212 2.886105 0 1.901072.00806 2.1394526.04212 2.886077.03399.7450683.15233 1.2539234.32538 1.699175.17887.4603118.41822.8506849.80737 1.2398633.38918.3891507.77955.6285038 1.23986.8073937.44526.1730266.95411.2913698 1.69918.3253525.74662.0340663.985.0421245 2.8861.0421245 1.90108 0 2.13946-.0080582 2.88608-.0421245.74507-.0339827 1.25392-.1523259 1.69918-.3253525.46031-.1788899.85068-.418243 1.23986-.8073937.38915-.3891784.6285-.7795515.80739-1.2398633.17303-.4452516.29137-.9541067.32536-1.699175.03406-.7466244.04212-.985005.04212-2.886077 0-1.9011-.00806-2.1394806-.04212-2.886105-.03399-.7450683-.15233-1.2539234-.32536-1.699175-.17889-.4603118-.41824-.8506849-.80739-1.2398633-.38918-.3891507-.77955-.6285038-1.23986-.8073657-.44526-.1730546-.95411-.2913978-1.69918-.3253805-.74662-.0340663-.985-.0421245-2.88608-.0421245zm0 1.2612591c1.86907 0 2.09047.0071412 2.82859.0408185.68249.0311208 1.05314.1451567 1.2998.2410202.32674.1269847.55993.2786715.80486.5236376.24497.2449382.39666.4781231.52364.804865.09587.246661.2099.6173058.24102 1.2997988.03368.738122.04082.959525.04082 2.8286148 0 1.8690618-.00714 2.0904648-.04082 2.8285868-.03112.682493-.14515 1.0531378-.24102 1.2997988-.12698.3267419-.27867.5599268-.52364.804865-.24493.2449661-.47812.3966529-.80486.5236376-.24666.0958635-.61731.2098994-1.2998.2410202-.73801.0336773-.95939.0408185-2.82859.0408185-1.86922 0-2.09057-.0071412-2.82861-.0408185-.68249-.0311208-1.05314-.1451567-1.2998-.2410202-.32674-.1269847-.55993-.2786715-.80486-.5236376-.24494-.2449382-.39666-.4781231-.52364-.804865-.09587-.246661-.2099-.6173058-.24102-1.2997988-.03368-.738122-.04082-.959525-.04082-2.8285868 0-1.8690898.00714-2.0904928.04082-2.8286148.03112-.682493.14515-1.0531378.24102-1.2997988.12698-.3267419.27867-.5599268.52364-.804865.24493-.2449661.47812-.3966529.80486-.5236376.24666-.0958635.61731-.2098994 1.2998-.2410202.73812-.0336773.95952-.0408185 2.82861-.0408185zm0 2.1441484c-1.98526 0-3.5946 1.6093412-3.5946 3.5946065 0 1.9852373 1.60934 3.5945785 3.5946 3.5945785 1.98524 0 3.59458-1.6093412 3.59458-3.5945785 0-1.9852653-1.60934-3.5946065-3.59458-3.5946065zm0 5.9279258c-1.28868 0-2.33334-1.0446628-2.33334-2.3333193 0-1.2886845 1.04466-2.3333473 2.33334-2.3333473 1.28866 0 2.33332 1.0446628 2.33332 2.3333473 0 1.2886565-1.04466 2.3333193-2.33332 2.3333193zm4.57661-6.0699426c0 .4639241-.37609.8399871-.84001.8399871-.4639 0-.83999-.376063-.83999-.8399871 0-.4639242.37609-.8400152.83999-.8400152.46392 0 .84001.376091.84001.8400152z" transform="translate(-1131 -25)"/></svg>