<svg height="14" viewBox="0 0 14 14" width="14" xmlns="http://www.w3.org/2000/svg"><path d="m1090 25c-3.86619 0-7 3.1338125-7 7 0 2.965375 1.84494 5.4985 4.44894 6.5183125-.06125-.553875-.11638-1.4035.0245-2.008125.12687-.546.82075-3.4794375.82075-3.4794375s-.20957-.419125-.20957-1.0390625c0-.9734375.56438-1.700125 1.26657-1.700125.59718 0 .88594.4484375.88594.986125 0 .6006875-.38238 1.4984375-.57969 2.3305625-.16494.6969375.34912 1.26525 1.03643 1.26525 1.24425 0 2.20063-1.3120625 2.20063-3.2055625 0-1.6760625-1.20444-2.848125-2.92425-2.848125-1.9915 0-3.1605 1.4940625-3.1605 3.038 0 .6015625.23144 1.246875.52063 1.5973125.05731.0695625.06562.1299375.04856.2008125-.05294.221375-.17106.6965-.19425.7940625-.03063.12775-.1015.1553125-.23407.093625-.87456-.4073125-1.421-1.68525-1.421-2.7120625 0-2.2080625 1.60432-4.235875 4.62525-4.235875 2.42813 0 4.31551 1.7303125 4.31551 4.0429375 0 2.412375-1.52119 4.354-3.63257 4.354-.70918 0-1.37594-.3688125-1.60431-.804125 0 0-.35088 1.3365625-.43619 1.66425-.15794.6076875-.5845 1.3698125-.87019 1.834875.65538.203 1.35144.312375 2.07288.312375 3.86619 0 7-3.13425 7-7 0-3.8661875-3.13381-7-7-7" fill-rule="evenodd" transform="translate(-1083 -25)"/></svg>