<svg height="14" viewBox="0 0 20 14" width="20" xmlns="http://www.w3.org/2000/svg"><g fill="none"><path d="m19.4532258 2.19032258c-.2258064-.85806452-.9032258-1.53548387-1.7612903-1.77258064-1.5467742-.41774194-7.75645163-.41774194-7.75645163-.41774194s-6.20967742 0-7.76774193.41774194c-.85806452.22580645-1.52419355.9032258-1.76129033 1.77258064-.40645161 1.55806452-.40645161 4.80967742-.40645161 4.80967742s0 3.2516129.41774194 4.8096774c.22580645.8580645.9032258 1.5354839 1.76129032 1.7725807 1.54677419.4177419 7.75645161.4177419 7.75645161.4177419s6.20967743 0 7.76774193-.4177419c.8580645-.2258065 1.5241936-.9032258 1.7612903-1.7725807.4064516-1.5580645.4064516-4.8096774.4064516-4.8096774s0-3.2516129-.4177419-4.80967742z" fill="#000"/><path d="m7.90322581 9.95806452v-5.91612904l5.19354839 2.95806452z" fill="#fff"/></g></svg>
